HIERARCHY
ROOT hips
{
	OFFSET -0.003675 0.299928 -0.021708
	CHANNELS 6 Xposition Yposition Zposition Xrotation Yrotation Zrotation
	JOINT LowerBack
	{
		OFFSET 0.000919 0.177588 0.009275
		CHANNELS 3 Xrotation Yrotation Zrotation
		JOINT spine
		{
			OFFSET 0.000919 0.177588 0.009275
			CHANNELS 3 Xrotation Yrotation Zrotation
			JOINT chest
			{
				OFFSET 0.000456 0.100015 0.004638
				CHANNELS 3 Xrotation Yrotation Zrotation
				JOINT neck
				{
					OFFSET 0.000456 0.100015 0.004638
					CHANNELS 3 Xrotation Yrotation Zrotation
					JOINT head
					{
						OFFSET 0.000924 0.155147 0.009274
						CHANNELS 6 Xposition Yposition Zposition Xrotation Yrotation Zrotation
						End Site
						{
							OFFSET 0.000000 0.153400 0.000000
						}
					}
				}
				JOINT shoulder.L
				{
					OFFSET 0.019937 0.078966 0.057518
					CHANNELS 6 Xposition Yposition Zposition Yrotation Xrotation Zrotation
					JOINT upper_arm.L
					{
						OFFSET 0.177024 -0.020465 -0.095062
						CHANNELS 6 Xposition Yposition Zposition Xrotation Yrotation Zrotation
						JOINT forearm.L
						{
							OFFSET 0.247100 -0.135500 -0.061800
							CHANNELS 3 Xrotation Yrotation Zrotation
							JOINT hand.L
							{
								OFFSET 0.217000 -0.143000 0.039300
								CHANNELS 3 Xrotation Yrotation Zrotation
								JOINT palm.01.L
								{
									OFFSET 0.021770 -0.038291 0.012954
									CHANNELS 6 Xposition Yposition Zposition Yrotation Xrotation Zrotation
									JOINT f_index.01.L
									{
										OFFSET 0.053215 -0.044137 0.008236
										CHANNELS 3 Xrotation Yrotation Zrotation
										JOINT f_index.02.L
										{
											OFFSET 0.036108 -0.024723 -0.010656
											CHANNELS 3 Xrotation Yrotation Zrotation
											JOINT f_index.03.L
											{
												OFFSET 0.021342 -0.014948 -0.010846
												CHANNELS 3 Xrotation Yrotation Zrotation
												End Site
												{
													OFFSET 0.015600 -0.009860 -0.013421
												}
											}
										}
									}
									JOINT thumb.01.L
									{
										OFFSET -0.009090 -0.002348 -0.024223
										CHANNELS 6 Xposition Yposition Zposition Xrotation Yrotation Zrotation
										JOINT thumb.02.L
										{
											OFFSET 0.019713 -0.035076 -0.011120
											CHANNELS 3 Xrotation Yrotation Zrotation
											JOINT thumb.03.L
											{
												OFFSET 0.024877 -0.021748 -0.005176
												CHANNELS 3 Xrotation Yrotation Zrotation
												End Site
												{
													OFFSET 0.016125 -0.013029 -0.001569
												}
											}
										}
									}
								}
								JOINT palm.02.L
								{
									OFFSET 0.032823 -0.025104 0.012281
									CHANNELS 6 Xposition Yposition Zposition Yrotation Xrotation Zrotation
									JOINT f_middle.01.L
									{
										OFFSET 0.055723 -0.038469 0.008037
										CHANNELS 3 Xrotation Yrotation Zrotation
										JOINT f_middle.02.L
										{
											OFFSET 0.038167 -0.027473 -0.015582
											CHANNELS 3 Xrotation Yrotation Zrotation
											JOINT f_middle.03.L
											{
												OFFSET 0.021707 -0.016587 -0.017037
												CHANNELS 3 Xrotation Yrotation Zrotation
												End Site
												{
													OFFSET 0.014112 -0.010584 -0.014294
												}
											}
										}
									}
								}
								JOINT palm.03.L
								{
									OFFSET 0.039230 -0.011402 0.008390
									CHANNELS 6 Xposition Yposition Zposition Yrotation Xrotation Zrotation
									JOINT f_ring.01.L
									{
										OFFSET 0.061796 -0.031470 0.007910
										CHANNELS 3 Xrotation Yrotation Zrotation
										JOINT f_ring.02.L
										{
											OFFSET 0.033092 -0.023401 -0.019127
											CHANNELS 3 Xrotation Yrotation Zrotation
											JOINT f_ring.03.L
											{
												OFFSET 0.021392 -0.015362 -0.017824
												CHANNELS 3 Xrotation Yrotation Zrotation
												End Site
												{
													OFFSET 0.008670 -0.007297 -0.014686
												}
											}
										}
									}
								}
								JOINT palm.04.L
								{
									OFFSET 0.043417 0.002450 0.002889
									CHANNELS 6 Xposition Yposition Zposition Yrotation Xrotation Zrotation
									JOINT f_pinky.01.L
									{
										OFFSET 0.069986 -0.026156 0.003627
										CHANNELS 3 Xrotation Yrotation Zrotation
										JOINT f_pinky.02.L
										{
											OFFSET 0.018520 -0.012813 -0.016429
											CHANNELS 3 Xrotation Yrotation Zrotation
											JOINT f_pinky.03.L
											{
												OFFSET 0.013822 -0.009796 -0.014947
												CHANNELS 3 Xrotation Yrotation Zrotation
												End Site
												{
													OFFSET 0.007238 -0.006103 -0.011657
												}
											}
										}
									}
								}
							}
						}
					}
				}
				JOINT shoulder.R
				{
					OFFSET -0.016662 0.078957 0.057696
					CHANNELS 6 Xposition Yposition Zposition Yrotation Xrotation Zrotation
					JOINT upper_arm.R
					{
						OFFSET -0.176972 -0.020537 -0.095144
						CHANNELS 6 Xposition Yposition Zposition Xrotation Yrotation Zrotation
						JOINT forearm.R
						{
							OFFSET -0.247100 -0.135500 -0.061800
							CHANNELS 3 Xrotation Yrotation Zrotation
							JOINT hand.R
							{
								OFFSET -0.217000 -0.143000 0.039300
								CHANNELS 3 Xrotation Yrotation Zrotation
								JOINT palm.01.R
								{
									OFFSET -0.021773 -0.038278 0.012988
									CHANNELS 6 Xposition Yposition Zposition Yrotation Xrotation Zrotation
									JOINT f_index.01.R
									{
										OFFSET -0.053212 -0.044139 0.008249
										CHANNELS 3 Xrotation Yrotation Zrotation
										JOINT f_index.02.R
										{
											OFFSET -0.036049 -0.024835 -0.010634
											CHANNELS 3 Xrotation Yrotation Zrotation
											JOINT f_index.03.R
											{
												OFFSET -0.021371 -0.014881 -0.010866
												CHANNELS 3 Xrotation Yrotation Zrotation
												End Site
												{
													OFFSET -0.015584 -0.009883 -0.013422
												}
											}
										}
									}
									JOINT thumb.01.R
									{
										OFFSET 0.009113 -0.002381 -0.024211
										CHANNELS 6 Xposition Yposition Zposition Xrotation Yrotation Zrotation
										JOINT thumb.02.R
										{
											OFFSET -0.019694 -0.035097 -0.011088
											CHANNELS 3 Xrotation Yrotation Zrotation
											JOINT thumb.03.R
											{
												OFFSET -0.024867 -0.021762 -0.005168
												CHANNELS 3 Xrotation Yrotation Zrotation
												End Site
												{
													OFFSET -0.016120 -0.013036 -0.001565
												}
											}
										}
									}
								}
								JOINT palm.02.R
								{
									OFFSET -0.032828 -0.025095 0.012286
									CHANNELS 6 Xposition Yposition Zposition Yrotation Xrotation Zrotation
									JOINT f_middle.01.R
									{
										OFFSET -0.055721 -0.038472 0.008040
										CHANNELS 3 Xrotation Yrotation Zrotation
										JOINT f_middle.02.R
										{
											OFFSET -0.038101 -0.027593 -0.015557
											CHANNELS 3 Xrotation Yrotation Zrotation
											JOINT f_middle.03.R
											{
												OFFSET -0.021730 -0.016530 -0.017054
												CHANNELS 3 Xrotation Yrotation Zrotation
												End Site
												{
													OFFSET -0.014096 -0.010608 -0.014293
												}
											}
										}
									}
								}
								JOINT palm.03.R
								{
									OFFSET -0.039192 -0.011488 0.008390
									CHANNELS 6 Xposition Yposition Zposition Yrotation Xrotation Zrotation
									JOINT f_ring.01.R
									{
										OFFSET -0.061839 -0.031387 0.007876
										CHANNELS 3 Xrotation Yrotation Zrotation
										JOINT f_ring.02.R
										{
											OFFSET -0.033068 -0.023437 -0.019125
											CHANNELS 3 Xrotation Yrotation Zrotation
											JOINT f_ring.03.R
											{
												OFFSET -0.021371 -0.015393 -0.017822
												CHANNELS 3 Xrotation Yrotation Zrotation
												End Site
												{
													OFFSET -0.008654 -0.007321 -0.014684
												}
											}
										}
									}
								}
								JOINT palm.04.R
								{
									OFFSET -0.043421 0.002443 0.002845
									CHANNELS 6 Xposition Yposition Zposition Yrotation Xrotation Zrotation
									JOINT f_pinky.01.R
									{
										OFFSET -0.069983 -0.026169 0.003599
										CHANNELS 3 Xrotation Yrotation Zrotation
										JOINT f_pinky.02.R
										{
											OFFSET -0.018501 -0.012842 -0.016428
											CHANNELS 3 Xrotation Yrotation Zrotation
											JOINT f_pinky.03.R
											{
												OFFSET -0.013806 -0.009821 -0.014946
												CHANNELS 3 Xrotation Yrotation Zrotation
												End Site
												{
													OFFSET -0.007226 -0.006121 -0.011655
												}
											}
										}
									}
								}
							}
						}
					}
				}
			}
		}
	}
	JOINT pelvis.L
	{
		OFFSET 0.000000 0.000000 0.000000
		CHANNELS 6 Xposition Yposition Zposition Xrotation Yrotation Zrotation
		JOINT thigh.L
		{
			OFFSET 0.101675 0.001054 -0.000000
			CHANNELS 3 Xrotation Yrotation Zrotation
			JOINT shin.L
			{
				OFFSET 0.000000 -0.534800 0.041000
				CHANNELS 3 Xrotation Yrotation Zrotation
				JOINT foot.L
				{
					OFFSET 0.000000 -0.452000 -0.044800
					CHANNELS 3 Xrotation Yrotation Zrotation
					JOINT toe.L
					{
						OFFSET -0.000000 -0.068500 0.109600
						CHANNELS 3 Xrotation Yrotation Zrotation
						End Site
						{
							OFFSET -0.000000 0.000000 0.067200
						}
					}
				}
				JOINT heel.L
				{
					OFFSET 0.000000 -0.452000 -0.044800
					CHANNELS 3 Xrotation Yrotation Zrotation
					JOINT heel.02.L
					{
						OFFSET -0.038000 -0.085200 0.016200
						CHANNELS 6 Xposition Yposition Zposition Xrotation Yrotation Zrotation
						End Site
						{
							OFFSET 0.080000 -0.000000 0.000000
						}
					}
				}
			}
		}
	}
	JOINT pelvis.R
	{
		OFFSET 0.000000 0.000000 0.000000
		CHANNELS 6 Xposition Yposition Zposition Xrotation Yrotation Zrotation
		JOINT thigh.R
		{
			OFFSET -0.094325 0.001054 0.000000
			CHANNELS 3 Xrotation Yrotation Zrotation
			JOINT shin.R
			{
				OFFSET 0.000000 -0.534800 0.041000
				CHANNELS 3 Xrotation Yrotation Zrotation
				JOINT foot.R
				{
					OFFSET 0.000000 -0.452000 -0.044800
					CHANNELS 3 Xrotation Yrotation Zrotation
					JOINT toe.R
					{
						OFFSET -0.000000 -0.068500 0.109600
						CHANNELS 3 Xrotation Yrotation Zrotation
						End Site
						{
							OFFSET -0.000000 0.000000 0.067200
						}
					}
				}
				JOINT heel.R
				{
					OFFSET 0.000000 -0.452000 -0.044800
					CHANNELS 3 Xrotation Yrotation Zrotation
					JOINT heel.02.R
					{
						OFFSET 0.038000 -0.085200 0.016200
						CHANNELS 6 Xposition Yposition Zposition Xrotation Yrotation Zrotation
						End Site
						{
							OFFSET -0.080000 0.000000 -0.000000
						}
					}
				}
			}
		}
	}
}
MOTION
Frames: 4
Frame Time: 0.041667
0.368775 -0.071793 -2.493006 -178.979930 -11.409914 178.786308 -0.000001 0.000001 0.000000 -0.000000 0.000000 -0.000000 0.000000 0.000000 0.000000 0.000000 0.000000 -0.000000 0.000924 0.155147 0.009274 15.902504 1.384894 -44.131833 0.019937 0.078966 0.057518 6.831809 32.026689 49.151394 0.177024 -0.020465 -0.095062 -82.247881 -30.119567 -105.809404 -26.486017 27.793372 29.345037 0.000001 -0.000001 0.000003 0.021770 -0.038291 0.012954 0.000002 0.000001 0.000001 -0.000003 0.000002 0.000007 0.000001 0.000001 0.000005 0.000003 0.000001 -0.000006 -0.009090 -0.002348 -0.024224 -0.000003 0.000001 0.000003 -0.000001 0.000001 0.000001 0.000001 0.000002 -0.000002 0.032823 -0.025104 0.012281 0.000000 -0.000000 0.000004 -0.000002 -0.000001 -0.000003 -0.000004 -0.000001 0.000001 0.000004 -0.000006 0.000004 0.039230 -0.011402 0.008390 0.000002 -0.000001 0.000009 0.000003 -0.000000 0.000005 -0.000002 0.000005 -0.000002 -0.000002 -0.000004 0.000002 0.043417 0.002450 0.002889 0.000001 0.000001 -0.000000 -0.000001 -0.000007 -0.000003 -0.000000 0.000004 -0.000003 0.000001 0.000003 -0.000001 -0.016662 0.078957 0.057696 25.341544 31.885222 -47.624447 -0.176972 -0.020537 -0.095144 -80.340045 48.391457 98.223216 -10.220321 12.906416 -12.273566 -0.000000 -0.000003 -0.000004 -0.021773 -0.038278 0.012988 -0.000003 -0.000000 -0.000003 -0.000001 0.000001 -0.000001 0.000000 -0.000003 -0.000008 -0.000002 -0.000001 0.000002 0.009114 -0.002381 -0.024212 0.000002 -0.000003 -0.000001 -0.000002 0.000002 0.000002 -0.000003 -0.000004 -0.000006 -0.032829 -0.025095 0.012286 0.000001 -0.000001 -0.000003 0.000000 0.000001 -0.000003 -0.000003 0.000000 -0.000002 -0.000001 0.000003 -0.000001 -0.039192 -0.011487 0.008390 -0.000002 0.000001 0.000001 -0.000002 0.000003 -0.000003 0.000004 -0.000002 0.000005 -0.000001 -0.000003 -0.000001 -0.043421 0.002443 0.002845 -0.000000 0.000000 -0.000001 -0.000006 0.000006 0.000001 0.000001 -0.000001 0.000002 -0.000004 0.000003 0.000001 0.000000 0.000000 -0.000000 2.305871 0.929316 0.800357 -10.578321 -0.296784 -2.348314 -0.467391 0.024009 -0.239009 0.000000 0.000000 0.000000 -0.000002 0.000000 -0.000000 0.000002 -0.000001 -0.000000 -0.038000 -0.085200 0.016200 0.000001 -0.000001 0.000000 0.000000 0.000000 -0.000000 2.251251 -0.051659 2.056994 5.833058 0.330841 4.508187 -1.980706 1.319755 -13.438767 0.000000 -0.000000 0.000001 0.000000 -0.000001 0.000000 0.000003 -0.000002 0.000001 0.038000 -0.085200 0.016201 0.000002 -0.000002 0.000000 
0.368006 -0.074282 -2.492561 -178.700589 -15.589731 178.994041 -0.000001 0.000001 -0.000000 -0.000000 -0.000001 -0.000000 -0.000000 0.000002 -0.000000 0.000000 0.000001 -0.000000 0.000924 0.155147 0.009274 20.958021 1.991947 -42.657332 0.019937 0.078966 0.057518 8.399499 32.234268 50.597997 0.177024 -0.020465 -0.095062 -81.308136 -28.381396 -105.590927 -26.020214 25.548514 29.068971 -0.000001 0.000001 0.000003 0.021770 -0.038291 0.012954 0.000003 0.000003 -0.000001 -0.000001 -0.000001 0.000003 -0.000002 -0.000000 0.000009 -0.000000 0.000003 -0.000001 -0.009090 -0.002348 -0.024223 -0.000000 -0.000003 0.000002 0.000001 0.000001 0.000001 -0.000001 -0.000001 0.000001 0.032823 -0.025104 0.012281 -0.000001 0.000002 0.000009 0.000001 -0.000002 -0.000010 -0.000002 0.000000 0.000001 0.000000 0.000000 -0.000001 0.039230 -0.011402 0.008390 0.000003 0.000001 0.000004 0.000003 0.000003 -0.000000 0.000000 0.000001 -0.000004 0.000001 -0.000003 0.000002 0.043417 0.002450 0.002889 0.000002 0.000001 0.000003 -0.000004 -0.000004 -0.000004 -0.000003 0.000001 -0.000001 0.000004 -0.000000 -0.000001 -0.016662 0.078957 0.057696 25.631398 32.115437 -49.112554 -0.176972 -0.020537 -0.095144 -77.572473 44.251740 98.693679 -13.036107 15.554824 -14.459082 -0.000002 0.000004 0.000001 -0.021772 -0.038278 0.012988 -0.000001 -0.000000 -0.000002 0.000001 0.000003 -0.000001 -0.000000 -0.000002 -0.000001 -0.000000 -0.000002 -0.000002 0.009113 -0.002381 -0.024211 -0.000000 0.000001 -0.000001 -0.000001 -0.000001 -0.000001 0.000005 0.000003 0.000003 -0.032828 -0.025095 0.012286 0.000003 0.000003 -0.000003 0.000001 0.000005 0.000001 0.000002 0.000001 -0.000002 -0.000003 -0.000002 0.000001 -0.039191 -0.011488 0.008390 0.000001 0.000003 -0.000002 -0.000000 0.000003 -0.000002 -0.000001 0.000002 -0.000000 -0.000003 0.000000 0.000003 -0.043420 0.002442 0.002844 0.000001 0.000001 0.000000 -0.000004 0.000007 0.000003 -0.000001 -0.000003 0.000002 0.000002 -0.000001 -0.000001 0.000000 0.000000 -0.000000 2.307040 0.913690 0.744186 -11.528396 -0.376276 -3.298689 0.781026 0.011703 -0.114866 0.000000 -0.000001 -0.000001 -0.000004 -0.000002 -0.000001 -0.000002 -0.000002 -0.000001 -0.038000 -0.085200 0.016200 0.000001 -0.000000 -0.000001 0.000000 0.000000 -0.000000 2.252453 -0.050832 1.996226 10.270225 0.398922 5.916198 -1.922179 1.239999 -12.612417 0.000000 0.000000 0.000002 0.000003 -0.000001 0.000001 0.000003 0.000001 -0.000000 0.038000 -0.085200 0.016200 0.000003 -0.000001 0.000001 
0.368112 -0.075344 -2.491601 -178.329873 -19.810132 179.389919 -0.000000 -0.000000 -0.000000 0.000000 -0.000000 -0.000000 0.000000 -0.000000 0.000000 -0.000000 0.000003 0.000001 0.000925 0.155148 0.009274 25.353437 2.509258 -41.434591 0.019937 0.078966 0.057518 7.595075 32.429253 51.969096 0.177025 -0.020466 -0.095062 -78.935601 -25.758296 -105.395707 -26.099502 24.135875 29.251228 -0.000000 -0.000002 -0.000000 0.021770 -0.038291 0.012954 0.000001 -0.000001 -0.000004 -0.000002 0.000000 -0.000000 0.000001 0.000001 0.000003 -0.000000 0.000005 -0.000002 -0.009090 -0.002348 -0.024223 -0.000002 0.000000 -0.000003 0.000002 0.000000 0.000001 -0.000001 0.000001 -0.000001 0.032823 -0.025104 0.012281 -0.000002 -0.000001 0.000002 0.000001 0.000001 -0.000002 -0.000002 0.000000 0.000001 0.000000 -0.000001 -0.000000 0.039230 -0.011402 0.008390 -0.000001 -0.000001 0.000001 0.000001 0.000001 0.000001 0.000001 0.000001 0.000001 0.000001 0.000000 0.000000 0.043417 0.002450 0.002889 -0.000001 0.000001 -0.000003 -0.000001 -0.000004 0.000003 0.000000 0.000002 0.000000 0.000001 0.000000 0.000001 -0.016662 0.078957 0.057696 23.597802 32.349053 -50.684443 -0.176972 -0.020537 -0.095144 -77.486229 39.789749 100.105035 -13.621197 15.681325 -15.055171 0.000005 0.000002 0.000005 -0.021773 -0.038278 0.012988 0.000003 0.000001 0.000002 0.000001 0.000002 0.000001 -0.000004 0.000006 -0.000007 0.000002 -0.000002 0.000003 0.009113 -0.002381 -0.024212 0.000002 -0.000000 0.000002 -0.000002 0.000002 -0.000001 0.000003 -0.000003 0.000003 -0.032828 -0.025095 0.012286 0.000003 0.000001 -0.000003 -0.000000 0.000005 -0.000004 0.000003 -0.000001 0.000003 -0.000001 0.000000 0.000001 -0.039192 -0.011488 0.008390 0.000003 0.000005 -0.000000 0.000001 0.000005 0.000000 0.000000 -0.000001 0.000002 -0.000002 -0.000003 -0.000000 -0.043421 0.002443 0.002845 0.000004 0.000000 -0.000001 -0.000001 0.000007 -0.000003 0.000000 0.000003 0.000002 -0.000002 0.000000 0.000002 0.000000 0.000000 0.000000 2.306978 0.757442 0.572112 -10.748276 -0.410383 -3.823013 1.265098 0.014043 -0.138443 -0.000003 0.000003 -0.000000 -0.000001 0.000000 -0.000000 0.000002 0.000002 0.000001 -0.038000 -0.085200 0.016200 0.000001 0.000000 -0.000001 0.000000 0.000000 0.000000 2.253059 -0.048528 1.816684 11.868260 0.468494 7.015540 -2.467770 1.137607 -11.555481 0.000000 0.000002 0.000000 0.000001 0.000001 -0.000000 -0.000002 0.000003 -0.000002 0.038000 -0.085200 0.016200 -0.000003 0.000002 0.000001 
0.367845 -0.073787 -2.491035 -178.222476 -22.631678 179.514406 -0.000000 -0.000002 -0.000000 0.000000 -0.000001 0.000000 -0.000000 -0.000001 0.000000 0.000000 -0.000002 -0.000000 0.000924 0.155147 0.009274 27.890821 2.814707 -40.390983 0.019937 0.078966 0.057518 8.324412 32.644336 53.728454 0.177024 -0.020465 -0.095062 -76.812007 -22.007027 -105.054047 -28.114128 24.263979 30.545275 -0.000002 0.000001 -0.000001 0.021770 -0.038291 0.012954 0.000000 -0.000001 -0.000001 -0.000003 -0.000001 0.000003 -0.000000 0.000001 0.000005 -0.000003 0.000005 -0.000005 -0.009090 -0.002348 -0.024223 -0.000001 -0.000001 0.000003 0.000000 0.000001 0.000001 -0.000000 0.000001 -0.000001 0.032823 -0.025104 0.012281 0.000000 -0.000000 0.000002 -0.000000 0.000002 -0.000007 -0.000003 0.000001 0.000003 0.000001 0.000000 -0.000001 0.039230 -0.011402 0.008390 0.000000 -0.000000 -0.000001 0.000002 0.000003 -0.000000 -0.000000 0.000001 0.000001 0.000001 -0.000007 0.000003 0.043417 0.002450 0.002889 0.000000 -0.000000 -0.000002 -0.000003 -0.000002 -0.000004 0.000001 0.000004 -0.000003 -0.000001 0.000003 -0.000000 -0.016662 0.078957 0.057696 22.412012 32.680089 -53.302260 -0.176972 -0.020537 -0.095144 -76.491487 34.459267 101.351879 -14.002604 15.664928 -15.434834 -0.000001 0.000000 0.000004 -0.021772 -0.038278 0.012988 -0.000002 0.000001 -0.000003 -0.000001 0.000001 0.000001 -0.000001 -0.000002 -0.000003 0.000002 0.000000 -0.000001 0.009114 -0.002381 -0.024212 0.000001 -0.000003 0.000002 0.000001 0.000001 0.000002 0.000002 -0.000003 -0.000006 -0.032828 -0.025095 0.012286 -0.000001 0.000003 -0.000004 0.000002 0.000001 0.000002 0.000002 0.000001 0.000001 -0.000000 0.000003 -0.000006 -0.039191 -0.011488 0.008390 -0.000002 0.000002 0.000001 0.000002 -0.000001 -0.000002 0.000004 0.000000 0.000002 -0.000001 0.000004 -0.000000 -0.043420 0.002443 0.002845 -0.000000 0.000002 -0.000001 -0.000005 0.000008 -0.000001 -0.000002 -0.000005 -0.000004 -0.000003 -0.000002 -0.000000 -0.000000 0.000000 -0.000000 2.306448 0.486309 0.569735 -9.790519 -0.429701 -4.174799 1.969131 -0.061660 0.625302 0.000000 0.000002 0.000001 0.000003 -0.000000 -0.000001 0.000002 0.000002 0.000001 -0.038000 -0.085200 0.016199 -0.000002 -0.000000 -0.000001 -0.000000 -0.000000 -0.000000 2.253710 -0.048430 1.810115 11.526421 0.500703 7.399211 -2.190454 1.070442 -10.864398 0.000000 -0.000000 0.000001 -0.000002 -0.000000 -0.000001 0.000007 -0.000001 -0.000000 0.038000 -0.085200 0.016200 0.000003 -0.000001 -0.000000 
